Coordinates
version=1
nRows=9
nColumns=63
inDegrees=yes

Units are S.I. units (second, meters, Newtons, ...)
If the header above contains a line with 'inDegrees', this indicates whether rotational values are in degrees (yes) or radians (no).

endheader
time	pelvis_tilt	pelvis_list	pelvis_rotation	pelvis_tx	pelvis_ty	pelvis_tz	hip_flexion_r	hip_adduction_r	hip_rotation_r	knee_angle_r	knee_angle_r_beta	ankle_angle_r	subtalar_angle_r	mtp_angle_r	hip_flexion_l	hip_adduction_l	hip_rotation_l	knee_angle_l	knee_angle_l_beta	ankle_angle_l	subtalar_angle_l	mtp_angle_l	L5_S1_Flex_Ext	L5_S1_Lat_Bending	L5_S1_axial_rotation	L4_L5_Flex_Ext	L4_L5_Lat_Bending	L4_L5_axial_rotation	L3_L4_Flex_Ext	L3_L4_Lat_Bending	L3_L4_axial_rotation	L2_L3_Flex_Ext	L2_L3_Lat_Bending	L2_L3_axial_rotation	L1_L2_Flex_Ext	L1_L2_Lat_Bending	L1_L2_axial_rotation	L1_T12_Flex_Ext	L1_T12_Lat_Bending	L1_T12_axial_rotation	Abs_r3	Abs_r2	Abs_r1	Abs_t1	Abs_t2	neck_flexion	neck_bending	neck_rotation	arm_flex_r	arm_add_r	arm_rot_r	elbow_flex_r	pro_sup_r	wrist_flex_r	wrist_dev_r	arm_flex_l	arm_add_l	arm_rot_l	elbow_flex_l	pro_sup_l	wrist_flex_l	wrist_dev_l
     12.16700000	    -59.44634642	     -0.75297362	     -3.25316868	     -0.25892297	      1.09550580	     -0.03140395	    106.09181913	     -4.02649571	     -1.69152576	     98.73752789	      1.72329496	     14.09286760	      4.88703573	      0.00000000	    110.10603414	     -6.93456041	      3.69137098	     64.77071114	      1.13046217	     12.88226647	      5.25290806	      0.00000000	     -0.09941385	      0.42525432	      0.39657158	     -0.18462145	      0.56558825	      0.42135731	     -0.16332701	      1.03396335	      0.42135731	     -0.11362008	      1.03396335	      0.34700014	     -0.09231570	      0.86717861	      0.32221441	     -0.05680507	      0.65871894	      0.29742869	     -0.71010316	      4.81056192	      2.20561218	      0.00000000	      0.00000000	      0.00000000	      0.00000000	      0.00000000	     63.23938611	    -15.28015163	     15.67219923	     49.73767400	     51.02987148	      0.00000000	      5.00000014	     55.44948763	    -18.20936955	      7.81037127	     56.62545635	     49.92111659	      0.00000000	      5.00000014
     12.17500000	    -59.35630747	     -0.69564045	     -3.43261904	     -0.25871922	      1.09483916	     -0.03118859	    107.60313871	     -4.05564114	     -1.42065148	    101.21948153	      1.76661322	     15.10921298	      5.47800771	      0.00000000	    108.42094325	     -6.97569811	      3.94554873	     62.43521143	      1.08970001	     11.32153668	      5.71122333	      0.00000000	     -0.09927972	      0.43603855	      0.41471067	     -0.18437236	      0.57993127	      0.44063009	     -0.16310665	      1.06018413	      0.44063009	     -0.11346679	      1.06018413	      0.36287184	     -0.09219115	      0.88916981	      0.33695242	     -0.05672843	      0.67542371	      0.31103300	     -0.70914509	      4.93255526	      2.30649635	      0.00000000	      0.00000000	      0.00000000	      0.00000000	      0.00000000	     63.32588037	    -15.24678598	     16.12330159	     49.73136125	     51.06931366	      0.00000000	      5.00000014	     55.32968768	    -18.16782034	      7.61713938	     56.39757420	     49.90004671	      0.00000000	      5.00000014
     12.18300000	    -59.28056901	     -0.65424438	     -3.55951550	     -0.25845984	      1.09418544	     -0.03097565	    109.11240783	     -4.14111918	     -1.18879187	    103.50925589	      1.80657732	     16.45824674	      6.40936235	      0.00000000	    106.76408461	     -7.03374306	      4.03535378	     60.29242103	      1.05230126	      9.85401729	      6.06708040	      0.00000000	     -0.09903150	      0.44967163	      0.41854428	     -0.18391140	      0.59806327	      0.44470330	     -0.16269885	      1.09333161	      0.44470330	     -0.11318310	      1.09333161	      0.36622625	     -0.09196065	      0.91697039	      0.34006723	     -0.05658660	      0.69654136	      0.31390821	     -0.70737209	      5.08677543	      2.32781775	      0.00000000	      0.00000000	      0.00000000	      0.00000000	      0.00000000	     63.47564117	    -15.19258136	     16.69441291	     49.64521908	     51.12677376	      0.00000000	      5.00000014	     55.14252496	    -18.21011178	      7.43781747	     56.30924892	     49.88598057	      0.00000000	      5.00000014
     12.19200000	    -59.22210027	     -0.66441733	     -3.70368758	     -0.25820148	      1.09358179	     -0.03066830	    110.60692195	     -4.19842388	     -1.09121928	    105.55723419	      1.84232129	     17.83522762	      7.06635487	      0.00000000	    105.17040888	     -7.15605697	      4.07550040	     58.37310935	      1.01880295	      8.51922952	      6.31899870	      0.00000000	     -0.09974688	      0.46938218	      0.42448371	     -0.18523993	      0.62427829	      0.45101394	     -0.16387415	      1.14125582	      0.45101394	     -0.11400071	      1.14125582	      0.37142325	     -0.09262495	      0.95716413	      0.34489302	     -0.05699537	      0.72707299	      0.31836278	     -0.71248198	      5.30974505	      2.36085106	      0.00000000	      0.00000000	      0.00000000	      0.00000000	      0.00000000	     63.62845375	    -15.12338299	     17.24954799	     49.58144673	     51.18292608	      0.00000000	      5.00000014	     54.97136314	    -18.22028835	      7.20515506	     56.23053720	     49.86583605	      0.00000000	      5.00000014
     12.20000000	    -59.18521289	     -0.66800226	     -3.83794030	     -0.25793611	      1.09311292	     -0.03033332	    112.08359592	     -4.26647373	     -1.08724496	    107.34619485	      1.87354454	     19.24970951	      7.50682000	      0.00000000	    103.60571417	     -7.32364053	      3.97985814	     56.59075552	      0.98769501	      7.28477371	      6.46494731	      0.00000000	     -0.09991848	      0.48881856	      0.42527618	     -0.18555861	      0.65012868	      0.45185594	     -0.16415607	      1.18851345	      0.45185594	     -0.11419683	      1.18851345	      0.37211666	     -0.09278430	      0.99679881	      0.34553690	     -0.05709342	      0.75717995	      0.31895714	     -0.71370770	      5.52961331	      2.36525854	      0.00000000	      0.00000000	      0.00000000	      0.00000000	      0.00000000	     63.80610527	    -15.04179153	     17.79412178	     49.50892454	     51.23923882	      0.00000000	      5.00000014	     54.77198568	    -18.26334377	      6.95456068	     56.17669026	     49.84323324	      0.00000000	      5.00000014
     12.20800000	    -59.19225391	     -0.78120950	     -4.21667917	     -0.25769234	      1.09283091	     -0.02963982	    113.53207219	     -4.12856518	     -1.40799882	    108.79955685	      1.89891049	     20.26045243	      7.54458992	      0.00000000	    102.13832024	     -7.76157298	      3.91038505	     55.01759260	      0.96023814	      6.39330071	      6.52623708	      0.00000000	     -0.10008329	      0.52271070	      0.47587974	     -0.18586468	      0.69520523	      0.50562222	     -0.16442684	      1.27091880	      0.50562222	     -0.11438519	      1.27091880	      0.41639477	     -0.09293734	      1.06591166	      0.38665229	     -0.05718759	      0.80967888	      0.35690980	     -0.71488493	      5.91300801	      2.64670034	      0.00000000	      0.00000000	      0.00000000	      0.00000000	      0.00000000	     63.96612172	    -14.93860425	     18.06380303	     49.48653869	     51.26266928	      0.00000000	      5.00000014	     54.57703969	    -18.30275707	      6.81907766	     56.15380700	     49.82685434	      0.00000000	      5.00000014
     12.21700000	    -59.18097433	     -0.67570761	     -4.16265530	     -0.25744858	      1.09258661	     -0.02944366	    114.96972924	     -4.32373492	     -1.34083573	    110.13254252	      1.92217548	     21.94796916	      7.94369599	      0.00000000	    100.64915792	     -7.88224606	      3.28346619	     53.54632910	      0.93455975	      5.13673847	      6.37733641	      0.00000000	     -0.09968725	      0.52634864	      0.43142501	     -0.18512920	      0.70004369	      0.45838908	     -0.16377619	      1.27976409	      0.45838908	     -0.11393256	      1.27976409	      0.37749689	     -0.09256958	      1.07333015	      0.35053282	     -0.05696130	      0.81531405	      0.32356876	     -0.71205609	      5.95416110	      2.39945650	      0.00000000	      0.00000000	      0.00000000	      0.00000000	      0.00000000	     64.19309465	    -14.80639109	     18.76499910	     49.32330443	     51.33948037	      0.00000000	      5.00000014	     54.36857643	    -18.44939638	      6.50326053	     56.19030461	     49.79870110	      0.00000000	      5.00000014
     12.22500000	    -59.23043126	     -0.78403533	     -4.53291364	     -0.25728299	      1.09265007	     -0.02874322	    116.35678576	     -4.20560227	     -1.77918584	    111.03970653	      1.93800848	     22.82909821	      7.94788376	      0.00000000	     99.28684336	     -8.38182824	      2.98033993	     52.24643968	      0.91187239	      4.40581315	      6.29599641	      0.00000000	     -0.09939932	      0.55940739	      0.47744805	     -0.18459448	      0.74401183	      0.50728855	     -0.16330314	      1.36014313	      0.50728855	     -0.11360348	      1.36014313	      0.41776704	     -0.09230221	      1.14074355	      0.38792654	     -0.05679677	      0.86652205	      0.35808603	     -0.70999941	      6.32812830	      2.65542280	      0.00000000	      0.00000000	      0.00000000	      0.00000000	      0.00000000	     64.36115711	    -14.68376848	     18.97611349	     49.28293454	     51.35626733	      0.00000000	      5.00000014	     54.17928598	    -18.53196631	      6.40779038	     56.19404791	     49.78509025	      0.00000000	      5.00000014
     12.23300000	    -59.29221031	     -0.80101955	     -4.80764834	     -0.25714749	      1.09286446	     -0.02811415	    117.70034554	     -4.13398666	     -2.15806548	    111.69527084	      1.94945024	     23.82148816	      7.86463682	      0.00000000	     97.98594499	     -8.82223866	      2.46336129	     51.12571526	      0.89231206	      3.65490000	      6.18010275	      0.00000000	     -0.09861048	      0.57929499	      0.49950602	     -0.18312952	      0.77046234	      0.53072515	     -0.16200716	      1.40849784	      0.53072515	     -0.11270192	      1.40849784	      0.43706777	     -0.09156969	      1.18129835	      0.40584864	     -0.05634603	      0.89732794	      0.37462952	     -0.70436480	      6.55310081	      2.77810264	      0.00000000	      0.00000000	      0.00000000	      0.00000000	      0.00000000	     64.54173833	    -14.53021826	     19.25653491	     49.20192644	     51.37600865	      0.00000000	      5.00000014	     53.99574560	    -18.65378238	      6.25104363	     56.20963451	     49.76240264	      0.00000000	      5.00000014
